<svg xmlns="http://www.w3.org/2000/svg" width="720" height="960" viewBox="0 0 720 960" role="img" aria-labelledby="title desc"><title id="title">Two diagnostic depths</title><desc id="desc">Both expose faults; only one is built around guided workshop information. Explanatory decision model; not a measured benchmark.</desc><rect width="720" height="960" fill="#faf7f2"/><path d="M102 902 h78" stroke="#e46b3c" stroke-width="6" stroke-linecap="round"/><path d="M0 0 H720 V142 H0 Z" fill="#161c24"/><text x="40" y="58" fill="#fff" font-family="Segoe UI,Arial,sans-serif" font-size="30" font-weight="800">Two diagnostic depths</text><text x="40" y="101" fill="#f4e1d9" font-family="Segoe UI,Arial,sans-serif" font-size="18">Both expose faults; only one is built around guided workshop i</text><path d="M48 221 h22" stroke="#9d2c2f" stroke-width="6"/><rect x="70" y="190" width="285" height="62" rx="12" fill="#e46b3c"/><text x="212.5" y="212" text-anchor="middle" fill="#fff" font-family="Segoe UI,Arial,sans-serif" font-size="16" font-weight="650"><tspan x="212.5" dy="0">Symptom</tspan></text><path d="M163 303 h22" stroke="#9d2c2f" stroke-width="6"/><rect x="185" y="272" width="285" height="62" rx="12" fill="#9d2c2f"/><text x="327.5" y="294" text-anchor="middle" fill="#fff" font-family="Segoe UI,Arial,sans-serif" font-size="16" font-weight="650"><tspan x="327.5" dy="0">Fault memory</tspan></text><path d="M278 385 h22" stroke="#9d2c2f" stroke-width="6"/><rect x="300" y="354" width="285" height="62" rx="12" fill="#e46b3c"/><text x="442.5" y="376" text-anchor="middle" fill="#fff" font-family="Segoe UI,Arial,sans-serif" font-size="16" font-weight="650"><tspan x="442.5" dy="0">Live values</tspan></text><path d="M393 467 h22" stroke="#9d2c2f" stroke-width="6"/><rect x="415" y="436" width="285" height="62" rx="12" fill="#9d2c2f"/><text x="557.5" y="458" text-anchor="middle" fill="#fff" font-family="Segoe UI,Arial,sans-serif" font-size="16" font-weight="650"><tspan x="557.5" dy="0">Service function</tspan></text><path d="M48 549 h22" stroke="#9d2c2f" stroke-width="6"/><rect x="70" y="518" width="285" height="62" rx="12" fill="#e46b3c"/><text x="212.5" y="540" text-anchor="middle" fill="#fff" font-family="Segoe UI,Arial,sans-serif" font-size="16" font-weight="650"><tspan x="212.5" dy="0">Test plan</tspan></text><path d="M163 631 h22" stroke="#9d2c2f" stroke-width="6"/><rect x="185" y="600" width="285" height="62" rx="12" fill="#9d2c2f"/><text x="327.5" y="622" text-anchor="middle" fill="#fff" font-family="Segoe UI,Arial,sans-serif" font-size="16" font-weight="650"><tspan x="327.5" dy="0">Wiring / repair data</tspan></text><path d="M278 713 h22" stroke="#9d2c2f" stroke-width="6"/><rect x="300" y="682" width="285" height="62" rx="12" fill="#e46b3c"/><text x="442.5" y="704" text-anchor="middle" fill="#fff" font-family="Segoe UI,Arial,sans-serif" font-size="16" font-weight="650"><tspan x="442.5" dy="0">Programming</tspan></text><text x="40" y="930" fill="#9d2c2f" font-family="Segoe UI,Arial,sans-serif" font-size="15">CS-024 · Chassis Signal · documentation model · verified 2026-08-28</text></svg>