<svg xmlns="http://www.w3.org/2000/svg" width="720" height="980" viewBox="0 0 720 980" role="img" aria-labelledby="title desc"><title id="title">Connector to module isolation map</title><desc id="desc">The diagnostic path is decomposed into testable layers. Connector; Interface; Host and software; Gateway; Vehicle bus; Target module.</desc><rect width="720" height="980" fill="#111827"/><rect width="720" height="16" fill="#72b7ff"/><text x="44" y="70" class="heading">Connector to module isolation map</text><text x="44" y="122" class="sub">The diagnostic path is decomposed into testable layers.</text><rect x="80" y="210" width="560" height="84" rx="18" fill="#28364d" stroke="#72b7ff" stroke-width="3"/><circle cx="115" cy="252" r="21" fill="#72b7ff"/><text x="365" y="260" text-anchor="middle" class="label"><tspan x="365" dy="0">Connector</tspan></text><path d="M115 273V361" stroke="#698397" stroke-width="5"/><rect x="80" y="340" width="560" height="84" rx="18" fill="#28364d" stroke="#72b7ff" stroke-width="3"/><circle cx="115" cy="382" r="21" fill="#72b7ff"/><text x="365" y="390" text-anchor="middle" class="label"><tspan x="365" dy="0">Interface</tspan></text><path d="M115 403V491" stroke="#698397" stroke-width="5"/><rect x="80" y="470" width="560" height="84" rx="18" fill="#28364d" stroke="#72b7ff" stroke-width="3"/><circle cx="115" cy="512" r="21" fill="#72b7ff"/><text x="365" y="520" text-anchor="middle" class="label"><tspan x="365" dy="0">Host and software</tspan></text><path d="M115 533V621" stroke="#698397" stroke-width="5"/><rect x="80" y="600" width="560" height="84" rx="18" fill="#28364d" stroke="#72b7ff" stroke-width="3"/><circle cx="115" cy="642" r="21" fill="#72b7ff"/><text x="365" y="650" text-anchor="middle" class="label"><tspan x="365" dy="0">Gateway</tspan></text><path d="M115 663V751" stroke="#698397" stroke-width="5"/><rect x="80" y="730" width="560" height="84" rx="18" fill="#28364d" stroke="#72b7ff" stroke-width="3"/><circle cx="115" cy="772" r="21" fill="#72b7ff"/><text x="365" y="780" text-anchor="middle" class="label"><tspan x="365" dy="0">Vehicle bus</tspan></text><path d="M115 793V881" stroke="#698397" stroke-width="5"/><rect x="80" y="860" width="560" height="84" rx="18" fill="#28364d" stroke="#ffb85c" stroke-width="3"/><circle cx="115" cy="902" r="21" fill="#ffb85c"/><text x="365" y="910" text-anchor="middle" class="label"><tspan x="365" dy="0">Target module</tspan></text><circle cx="24" cy="958" r="2" fill="#ffb85c" opacity=".28"/><circle cx="40" cy="958" r="2" fill="#ffb85c" opacity=".28"/><circle cx="56" cy="958" r="2" fill="#ffb85c" opacity=".28"/><circle cx="72" cy="958" r="2" fill="#ffb85c" opacity=".28"/><circle cx="88" cy="958" r="2" fill="#ffb85c" opacity=".28"/><style>.heading{font:700 30px Arial,sans-serif;fill:#fff}.sub{font:400 18px Arial,sans-serif;fill:#bfd0dc}.label{font:600 19px Arial,sans-serif;fill:#fff}</style></svg>