<svg xmlns="http://www.w3.org/2000/svg" width="720" height="980" viewBox="0 0 720 980" role="img" aria-labelledby="ti de"><title id="ti">OBDLink CX vs UniCarScan UCSI-2100</title><desc id="de">Both are BimmerCode/BimmerLink-recommended Bluetooth adapters; compare the practical differences.</desc><rect width="720" height="980" fill="#0c1727"/><rect width="720" height="16" fill="#65c8ff"/><text x="44" y="58" class="h">OBDLink CX vs UniCarScan UCSI-2100</text><text x="44" y="94" class="s">Both are BimmerCode/BimmerLink-recommended Bluetooth adapters; compare the</text><text x="44" y="115" class="s">practical differences.</text><rect x="40" y="156" width="640" height="120" rx="12" fill="#1b2f4a" stroke="#65c8ff" stroke-width="2"/><text x="56" y="186" class="l">Connection</text><text x="56" y="210" class="m">OBDLink CX: Bluetooth Low Energy</text><text x="56" y="232" class="m">UniCarScan UCSI-2100: Bluetooth 4.0 (LE)</text><rect x="40" y="288" width="640" height="120" rx="12" fill="#1b2f4a" stroke="#65c8ff" stroke-width="2"/><text x="56" y="318" class="l">Platforms</text><text x="56" y="342" class="m">OBDLink CX: iOS and Android</text><text x="56" y="364" class="m">UniCarScan UCSI-2100: iOS / Android (also Windows PCs)</text><rect x="40" y="421" width="640" height="120" rx="12" fill="#1b2f4a" stroke="#65c8ff" stroke-width="2"/><text x="56" y="451" class="l">App ecosystem</text><text x="56" y="475" class="m">OBDLink CX: BimmerCode / BimmerLink (cars)</text><text x="56" y="497" class="m">UniCarScan UCSI-2100: + MotoScan / TuneECU (Android, bikes)</text><rect x="40" y="553" width="640" height="120" rx="12" fill="#1b2f4a" stroke="#65c8ff" stroke-width="2"/><text x="56" y="583" class="l">Pairing</text><text x="56" y="607" class="m">OBDLink CX: Connect in-app</text><text x="56" y="629" class="m">UniCarScan UCSI-2100: iOS: none; Android pairs the adapter</text><rect x="40" y="685" width="640" height="120" rx="12" fill="#1b2f4a" stroke="#65c8ff" stroke-width="2"/><text x="56" y="715" class="l">Idle / sleep</text><text x="56" y="739" class="m">OBDLink CX: Low sleep-current design</text><text x="56" y="761" class="m">UniCarScan UCSI-2100: Verify sleep behavior for your car</text><rect x="40" y="818" width="640" height="120" rx="12" fill="#1b2f4a" stroke="#65c8ff" stroke-width="2"/><text x="56" y="848" class="l">BMW series</text><text x="56" y="872" class="m">OBDLink CX: All series per app list</text><text x="56" y="894" class="m">UniCarScan UCSI-2100: All series per app list; verify model</text><style>.h{font:700 29px Arial,Helvetica,sans-serif;fill:#fff}.s{font:400 17px Arial,sans-serif;fill:#bfd0dc}.l{font:600 17px Arial,sans-serif;fill:#fff}.m{font:400 15px Arial,sans-serif;fill:#bfd0dc}.b{font:700 16px Arial,sans-serif;fill:#0c1727}.t{font:700 16px Arial,sans-serif;fill:#65c8ff}</style></svg>